<svg id="Layer_1" data-name="Layer 1" xmlns="http://www.w3.org/2000/svg" viewBox="0 0 141.73228 141.73228">
  <defs>
    <style>
      .cls-1 {
        fill: #999;
      }

      .cls-2 {
        fill: #f4b200;
      }

      .cls-3 {
        fill: #ffd03b;
      }

      .cls-4 {
        fill: #ffba00;
      }

      .cls-5 {
        fill: #0497bf;
      }

      .cls-6 {
        fill: #135db7;
      }
    </style>
  </defs>
  <rect class="cls-1" x="2.12182" y="2.95688" width="137.25843" height="137.25843" rx="37.55056"/>
  <g>
    <g>
      <path class="cls-2" d="M67.0662,77.98763v28.76714a105.79905,105.79905,0,0,1-20.71189-2.379c-10.21508-2.19116-10.21508-2.29548-17.36255-5.42574L39.31121,77.98763Z"/>
      <path class="cls-3" d="M118.3939,92.64343c-7.74271,6.91313-28.049,14.42436-51.3277,14.11134V77.98763h41.07957Z"/>
      <circle class="cls-2" cx="42.09074" cy="72.23055" r="29.7474"/>
      <circle class="cls-3" cx="102.57384" cy="71.52886" r="26.58489"/>
      <circle class="cls-4" cx="70.74058" cy="70.33247" r="36.46775"/>
    </g>
    <g>
      <path class="cls-5" d="M81.62275,9.15314V114.12133l-2.20167,4.8832-7.86144,17.44466a.88732.88732,0,0,1-1.61808-.00031l-7.9143-17.58-2.139-4.74755V9.15314a2.94986,2.94986,0,0,1,2.9529-2.9529H78.66985A2.9529,2.9529,0,0,1,81.62275,9.15314Z"/>
      <path class="cls-6" d="M81.62275,114.12133c-.05222,4.4867-4.85193,8.1074-10.76812,8.1074-5.9058,0-10.91421-3.6207-10.96637-8.1074Z"/>
      <path class="cls-6" d="M81.62275,114.12133H59.88826V9.15314a2.94474,2.94474,0,0,1,.32346-1.34606Z"/>
    </g>
  </g>
</svg>
