<svg id="Layer_1" data-name="Layer 1" xmlns="http://www.w3.org/2000/svg" viewBox="0 0 141.73 141.73"><defs><style>.cls-1{fill:#f4b200;}.cls-2{fill:#ffba00;}.cls-3{fill:#ffba4a;}.cls-4{fill:#00749f;}.cls-5{fill:#003e94;}</style></defs><path class="cls-1" d="M68.76,78.11v27.57a101.4,101.4,0,0,1-19.85-2.28c-9.79-2.1-9.79-2.2-16.64-5.2l9.89-20.09Z"/><path class="cls-2" d="M118,92.16c-7.42,6.62-26.88,13.82-49.19,13.52V78.11h39.37Z"/><circle class="cls-1" cx="44.82" cy="72.59" r="28.51"/><circle class="cls-3" cx="102.79" cy="71.92" r="25.48"/><circle class="cls-2" cx="69.45" cy="67.94" r="34.95"/><path class="cls-4" d="M82.71,12.14v100.6l-2.11,4.68-7.53,16.72a.86.86,0,0,1-1.56,0l-7.58-16.85-2-4.55V12.14a2.83,2.83,0,0,1,2.83-2.83H79.88A2.83,2.83,0,0,1,82.71,12.14Z"/><path class="cls-5" d="M82.71,112.74c0,4.3-4.65,7.77-10.32,7.77S61.93,117,61.88,112.74Z"/><path class="cls-5" d="M82.71,112.74H61.88V12.14a2.82,2.82,0,0,1,.31-1.29Z"/></svg>