<svg id="Layer_1" data-name="Layer 1" xmlns="http://www.w3.org/2000/svg" viewBox="0 0 141.73 141.73"><defs><style>.cls-1{fill:#f4b200;}.cls-2{fill:#ffba00;}.cls-3{fill:#ffba4a;}.cls-4{fill:#00749f;}.cls-5{fill:#003e94;}</style></defs><path class="cls-1" d="M68.76,78.11v27.57a101.4,101.4,0,0,1-19.85-2.28c-9.79-2.1-9.79-2.2-16.64-5.2l9.89-20.09Z"/><path class="cls-2" d="M114.27,94.47a92.36,92.36,0,0,1-45.51,11.21V78.11h39.37Z"/><circle class="cls-1" cx="44.82" cy="72.59" r="28.51"/><circle class="cls-3" cx="102.79" cy="71.92" r="25.48"/><circle class="cls-2" cx="69.45" cy="67.94" r="34.95"/><polygon class="cls-4" points="61.88 9.31 61.88 112.74 72.28 135.86 82.71 112.74 82.71 9.31 61.88 9.31"/><path class="cls-5" d="M82.71,112.74c0,4.3-4.65,7.77-10.32,7.77S61.93,117,61.88,112.74Z"/><polygon class="cls-5" points="61.88 112.74 82.71 112.74 61.88 9.31 61.88 112.74"/></svg>