<svg id="Layer_1" data-name="Layer 1" xmlns="http://www.w3.org/2000/svg" viewBox="0 0 133.17426 36.31379">
  <defs>
    <style>
      .cls-1 {
        fill: #ffc100;
      }

      .cls-2 {
        fill: #0af;
      }
    </style>
  </defs>
  <g>
    <g>
      <path class="cls-1" d="M88.56828,21.54069a20.9792,20.9792,0,0,0-4.78941-5.50658,19.37864,19.37864,0,0,1-3.75979-4.02592A6.62359,6.62359,0,0,1,78.98953,8.422c0-2.25589.91389-3.378,2.76484-3.378a2.56236,2.56236,0,0,1,2.07082.8329A4.03241,4.03241,0,0,1,84.53086,8.526v1.81627H89.783V8.87315c0-2.85747-.68251-5.044-2.04759-6.58252A7.65485,7.65485,0,0,0,81.70812,0a8.37687,8.37687,0,0,0-5.57606,1.73529L87.38826,34.324c.11573-.10415.23139-.2198.34712-.33553q2.13436-2.30785,2.14016-6.65194A12.24225,12.24225,0,0,0,88.56828,21.54069Z"/>
      <path class="cls-1" d="M92.43342,11.09578H97.306l3.77674,14.79344h.07117V11.09578h3.45928V35.8095h-3.98913L95.96387,17.76862h-.07V35.8095h-3.4604Z"/>
      <path class="cls-1" d="M110.50933,11.09578h5.26122l4.02414,24.71372h-3.88293l-.70609-4.9076v.07117h-4.41391l-.70609,4.83643h-3.60049Zm4.23654,16.52308-1.72964-12.21593h-.07l-1.69461,12.21593Z"/>
      <path class="cls-1" d="M121.66442,11.09578h5.7199a5.65477,5.65477,0,0,1,4.3416,1.5534,6.45466,6.45466,0,0,1,1.44834,4.55457v2.43572a6.45278,6.45278,0,0,1-1.44834,4.55457,5.65082,5.65082,0,0,1-4.3416,1.554h-1.83584V35.8095h-3.88406Zm5.7199,11.12121a1.82539,1.82539,0,0,0,1.42912-.52985,2.67849,2.67849,0,0,0,.47676-1.80025V16.95633a2.67849,2.67849,0,0,0-.47676-1.80025,1.82539,1.82539,0,0,0-1.42912-.52985h-1.83584V22.217Z"/>
    </g>
    <g>
      <path class="cls-2" d="M0,.50443H8.17031q4.13487,0,6.20343,2.21938,2.06742,2.22,2.068,6.5062v3.47961q0,4.28739-2.068,6.5062-2.06829,2.22-6.20343,2.21938H5.54761V35.8095H0Zm8.17031,15.887a2.60927,2.60927,0,0,0,2.04258-.75636,3.837,3.837,0,0,0,.68067-2.57243V8.877a3.837,3.837,0,0,0-.68067-2.57243,2.60928,2.60928,0,0,0-2.04258-.75637H5.54761V16.39146Z"/>
      <path class="cls-2" d="M21.84756,11.09578h5.26009L31.13236,35.8095H27.24887l-.70609-4.9076v.07117H22.13l-.70609,4.83643H17.82285ZM26.0841,27.61886,24.3539,15.40293h-.07061L22.58867,27.61886Z"/>
      <path class="cls-2" d="M33.00265,11.09578H38.722a5.65828,5.65828,0,0,1,4.34273,1.5534,6.45446,6.45446,0,0,1,1.4472,4.55457v2.43572a6.45257,6.45257,0,0,1-1.4472,4.55457A5.65433,5.65433,0,0,1,38.722,25.748H36.88615V35.8095h-3.8835ZM38.722,22.217a1.828,1.828,0,0,0,1.43025-.52985,2.68494,2.68494,0,0,0,.47619-1.80025V16.95633a2.68494,2.68494,0,0,0-.47619-1.80025,1.828,1.828,0,0,0-1.43025-.52985H36.88615V22.217Z"/>
      <path class="cls-2" d="M46.62963,11.09578H57.221v3.53045H50.51313v6.53162h5.33126V24.6883H50.51313v7.59075H57.221V35.8095H46.62963Z"/>
      <path class="cls-2" d="M59.44488,11.09578H65.1998a5.94606,5.94606,0,0,1,4.37776,1.39467,5.894,5.894,0,0,1,1.37716,4.28964V18.2979q0,3.84848-2.54193,4.872v.0706a3.03011,3.03011,0,0,1,1.994,1.73021,8.70932,8.70932,0,0,1,.58295,3.49543V32.8089a16.50018,16.50018,0,0,0,.07005,1.71157,4.29486,4.29486,0,0,0,.35361,1.289H67.45929a5.59653,5.59653,0,0,1-.28244-1.12974,16.85139,16.85139,0,0,1-.07117-1.90588v-4.519a3.83594,3.83594,0,0,0-.5468-2.36568A2.31491,2.31491,0,0,0,64.67,25.21815H63.32838V35.8095h-3.8835Zm5.29568,10.59136a2.327,2.327,0,0,0,1.74715-.5999,2.83466,2.83466,0,0,0,.58295-2.01264V17.16816a3.13884,3.13884,0,0,0-.47675-1.94147,1.8004,1.8004,0,0,0-1.5003-.60046H63.32838v7.06091Z"/>
      <path class="cls-2" d="M87.38826,34.324a8.23006,8.23006,0,0,1-5.88837,1.98976,7.79536,7.79536,0,0,1-6.09666-2.29055,9.5352,9.5352,0,0,1-2.07075-6.58253v-2.0245h5.25211v2.42937c0,2.279.94863,3.42433,2.869,3.42433a2.69666,2.69666,0,0,0,2.14016-.833,3.99342,3.99342,0,0,0,.74041-2.69542,7.381,7.381,0,0,0-1.018-3.91019,18.72113,18.72113,0,0,0-3.72512-4.06058,22.0347,22.0347,0,0,1-4.78934-5.47192,11.08974,11.08974,0,0,1-1.36515-5.51824,9.23109,9.23109,0,0,1,2.11707-6.48995c.18513-.19672.38178-.38179.57843-.55534Z"/>
    </g>
  </g>
</svg>
